<?xml version="1.0" standalone="no"?>
<!DOCTYPE svg PUBLIC "-//W3C//DTD SVG 20010904//EN"
 "http://www.w3.org/TR/2001/REC-SVG-20010904/DTD/svg10.dtd">
<svg version="1.0" xmlns="http://www.w3.org/2000/svg"
 width="200.000000pt" height="200.000000pt" viewBox="0 0 200.000000 200.000000"
 preserveAspectRatio="xMidYMid meet">
<metadata>
Created by potrace 1.11, written by Peter Selinger 2001-2013
</metadata>
<g transform="translate(0.000000,200.000000) scale(0.100000,-0.100000)"
fill="#000000" stroke="none">
<path d="M567 1904 c-1 -1 -27 -4 -57 -7 -165 -18 -345 -136 -421 -277 -9 -16
-21 -35 -27 -42 -5 -7 -20 -47 -33 -88 -23 -76 -32 -209 -17 -275 27 -118 70
-204 142 -282 114 -123 838 -838 846 -836 23 6 880 875 905 918 57 96 78 171
81 290 2 92 -1 122 -20 181 -52 161 -152 280 -296 351 -47 24 -98 45 -115 48
-16 3 -41 7 -55 10 -142 31 -358 -30 -470 -132 -14 -13 -29 -23 -33 -23 -5 0
-27 16 -49 35 -45 38 -141 87 -203 105 -37 10 -172 29 -178 24z"/>
</g>
</svg>
