<?xml version="1.0" encoding="UTF-8"?>
<svg width="107px" height="99px" viewBox="0 0 107 99" version="1.1" xmlns="http://www.w3.org/2000/svg" xmlns:xlink="http://www.w3.org/1999/xlink">
    <!-- Generator: Sketch 54 (76480) - https://sketchapp.com -->
    <title>shoe2</title>
    <desc>Created with Sketch.</desc>
    <g id="Page-1" stroke="none" stroke-width="1" fill="none" fill-rule="evenodd" opacity="0.0807524182">
        <g id="Desktop" transform="translate(-59.000000, -102.000000)" fill="#B3B2B2">
            <g id="Group" transform="translate(59.000000, 0.000000)">
                <path d="M27.4781425,103.788422 L27.4781425,102.682824 C32.4008172,101.490895 36.238323,101.859428 38.9906599,103.788422 C43.1191653,106.681912 42.3765096,108.530373 41.7515555,110.03386 C40.0976375,114.012784 43.4049933,117.817208 46.5573786,119.459825 C48.9788148,120.721566 46.5573786,120.721566 50.4266866,121.246096 C53.5811317,121.673718 74.6208977,122.244305 73.1641411,124.653228 C72.6537644,125.497197 79.6204237,138.392842 79.3694667,139.540982 C78.2628459,144.603823 81.8185366,148.431899 81.1735761,152.361012 C79.5436936,162.290292 84.3782305,168.450887 89.3247051,173.137785 C94.9726758,178.489366 102.414669,185.61469 105.69979,189.791408 C106.893707,191.309361 106.458456,192.993634 105.69979,194.82782 C105.277786,195.848073 104.182746,197.485794 102.414669,199.740982 C91.7054846,202.536384 78.7671436,199.21986 63.5996457,189.791408 C59.9421894,187.517853 50.5578547,181.827736 48.6552925,178.115985 C45.1498893,171.277218 40.5521767,164.55997 34.8621546,157.964241 C29.6449005,157.414555 26.0202535,156.583034 23.9882137,155.469679 C16.7379317,151.497249 12.2952902,145.378723 9.6339018,142.97912 C6.04375979,139.74212 3.10362712,137.318439 1.47298462,134.060414 C0.446340229,132.009177 -1.25227078,129.560453 1.47298462,126.579459 C15.3635201,111.385434 24.0319061,103.788422 27.4781425,103.788422 Z" id="shoe2"></path>
            </g>
        </g>
    </g>
</svg>